<mxfile host="app.diagrams.net" modified="2024-03-15T05:15:39.755Z" agent="Mozilla/5.0 (Windows NT 10.0; Win64; x64) AppleWebKit/537.36 (KHTML, like Gecko) Chrome/122.0.0.0 Safari/537.36" etag="bM5ml6Jo8Hf7HI7H46p-" version="24.0.4" type="github">
  <diagram name="Page-1" id="EvC8zE36NojXDn-zlxMh">
    <mxGraphModel dx="794" dy="412" grid="1" gridSize="10" guides="1" tooltips="1" connect="1" arrows="1" fold="1" page="1" pageScale="1" pageWidth="850" pageHeight="1100" math="0" shadow="0">
      <root>
        <mxCell id="0" />
        <mxCell id="1" parent="0" />
        <mxCell id="eL3KZXMqJx6TmEl7TWKh-3" value="" style="edgeStyle=orthogonalEdgeStyle;rounded=0;orthogonalLoop=1;jettySize=auto;html=1;" parent="1" source="eL3KZXMqJx6TmEl7TWKh-1" target="eL3KZXMqJx6TmEl7TWKh-2" edge="1">
          <mxGeometry relative="1" as="geometry" />
        </mxCell>
        <mxCell id="eL3KZXMqJx6TmEl7TWKh-1" value="Actor" style="shape=umlActor;verticalLabelPosition=bottom;verticalAlign=top;html=1;outlineConnect=0;" parent="1" vertex="1">
          <mxGeometry x="90" y="150" width="30" height="60" as="geometry" />
        </mxCell>
        <mxCell id="eL3KZXMqJx6TmEl7TWKh-5" value="" style="edgeStyle=orthogonalEdgeStyle;rounded=0;orthogonalLoop=1;jettySize=auto;html=1;" parent="1" source="eL3KZXMqJx6TmEl7TWKh-2" target="eL3KZXMqJx6TmEl7TWKh-4" edge="1">
          <mxGeometry relative="1" as="geometry">
            <Array as="points">
              <mxPoint x="320" y="185" />
            </Array>
          </mxGeometry>
        </mxCell>
        <mxCell id="eL3KZXMqJx6TmEl7TWKh-2" value="Created wishlist and send notifitcation to his known friends/family etc." style="whiteSpace=wrap;html=1;verticalAlign=top;" parent="1" vertex="1">
          <mxGeometry x="155" y="150" width="115" height="70" as="geometry" />
        </mxCell>
        <mxCell id="eL3KZXMqJx6TmEl7TWKh-19" value="" style="edgeStyle=orthogonalEdgeStyle;rounded=0;orthogonalLoop=1;jettySize=auto;html=1;" parent="1" source="eL3KZXMqJx6TmEl7TWKh-4" target="eL3KZXMqJx6TmEl7TWKh-18" edge="1">
          <mxGeometry relative="1" as="geometry" />
        </mxCell>
        <mxCell id="eL3KZXMqJx6TmEl7TWKh-4" value="User 1" style="whiteSpace=wrap;html=1;verticalAlign=top;" parent="1" vertex="1">
          <mxGeometry x="280" y="50" width="120" height="60" as="geometry" />
        </mxCell>
        <mxCell id="eL3KZXMqJx6TmEl7TWKh-7" value="" style="endArrow=classic;html=1;rounded=0;" parent="1" edge="1">
          <mxGeometry relative="1" as="geometry">
            <mxPoint x="270" y="200" as="sourcePoint" />
            <mxPoint x="370" y="200" as="targetPoint" />
          </mxGeometry>
        </mxCell>
        <mxCell id="eL3KZXMqJx6TmEl7TWKh-8" value="Label" style="edgeLabel;resizable=0;html=1;;align=center;verticalAlign=middle;" parent="eL3KZXMqJx6TmEl7TWKh-7" connectable="0" vertex="1">
          <mxGeometry relative="1" as="geometry" />
        </mxCell>
        <mxCell id="eL3KZXMqJx6TmEl7TWKh-9" value="User 2" style="whiteSpace=wrap;html=1;verticalAlign=top;" parent="1" vertex="1">
          <mxGeometry x="370" y="160" width="120" height="60" as="geometry" />
        </mxCell>
        <mxCell id="eL3KZXMqJx6TmEl7TWKh-10" value="" style="endArrow=classic;html=1;rounded=0;" parent="1" edge="1">
          <mxGeometry relative="1" as="geometry">
            <mxPoint x="210" y="260" as="sourcePoint" />
            <mxPoint x="370" y="260" as="targetPoint" />
          </mxGeometry>
        </mxCell>
        <mxCell id="eL3KZXMqJx6TmEl7TWKh-11" value="Label" style="edgeLabel;resizable=0;html=1;;align=center;verticalAlign=middle;" parent="eL3KZXMqJx6TmEl7TWKh-10" connectable="0" vertex="1">
          <mxGeometry relative="1" as="geometry" />
        </mxCell>
        <mxCell id="eL3KZXMqJx6TmEl7TWKh-12" value="User 3" style="whiteSpace=wrap;html=1;verticalAlign=top;" parent="1" vertex="1">
          <mxGeometry x="370" y="220" width="120" height="60" as="geometry" />
        </mxCell>
        <mxCell id="eL3KZXMqJx6TmEl7TWKh-13" value="User 3" style="whiteSpace=wrap;html=1;verticalAlign=top;" parent="1" vertex="1">
          <mxGeometry x="370" y="290" width="120" height="60" as="geometry" />
        </mxCell>
        <mxCell id="eL3KZXMqJx6TmEl7TWKh-14" value="" style="endArrow=classic;html=1;rounded=0;" parent="1" edge="1">
          <mxGeometry relative="1" as="geometry">
            <mxPoint x="210" y="310" as="sourcePoint" />
            <mxPoint x="370" y="310" as="targetPoint" />
          </mxGeometry>
        </mxCell>
        <mxCell id="eL3KZXMqJx6TmEl7TWKh-15" value="Label" style="edgeLabel;resizable=0;html=1;;align=center;verticalAlign=middle;" parent="eL3KZXMqJx6TmEl7TWKh-14" connectable="0" vertex="1">
          <mxGeometry relative="1" as="geometry" />
        </mxCell>
        <mxCell id="eL3KZXMqJx6TmEl7TWKh-16" value="" style="endArrow=none;html=1;rounded=0;" parent="1" edge="1">
          <mxGeometry width="50" height="50" relative="1" as="geometry">
            <mxPoint x="210" y="310" as="sourcePoint" />
            <mxPoint x="205" y="225" as="targetPoint" />
          </mxGeometry>
        </mxCell>
        <mxCell id="eL3KZXMqJx6TmEl7TWKh-17" value="Wish List: Badminton,&lt;div&gt;Car, Phone&lt;/div&gt;" style="rounded=0;whiteSpace=wrap;html=1;" parent="1" vertex="1">
          <mxGeometry x="120" width="120" height="60" as="geometry" />
        </mxCell>
        <mxCell id="eL3KZXMqJx6TmEl7TWKh-18" value="He initiated first to fulfill the list (Car) and pay 10% amount.&amp;nbsp;&lt;div&gt;Admin/Repsponsible person&amp;nbsp;&amp;nbsp;&lt;/div&gt;" style="whiteSpace=wrap;html=1;verticalAlign=top;" parent="1" vertex="1">
          <mxGeometry x="440" y="50" width="161" height="70" as="geometry" />
        </mxCell>
        <mxCell id="eL3KZXMqJx6TmEl7TWKh-20" value="Status start&lt;div&gt;Contribution Group&lt;/div&gt;" style="swimlane;childLayout=stackLayout;horizontal=1;startSize=50;horizontalStack=0;rounded=1;fontSize=14;fontStyle=0;strokeWidth=2;resizeParent=0;resizeLast=1;shadow=0;dashed=0;align=center;arcSize=4;whiteSpace=wrap;html=1;" parent="1" vertex="1">
          <mxGeometry x="640" y="20" width="160" height="120" as="geometry" />
        </mxCell>
        <mxCell id="eL3KZXMqJx6TmEl7TWKh-21" value="+Attribute 10&lt;br&gt;+Attribute 20&lt;br&gt;+Attribute 30&amp;nbsp;&lt;div&gt;Left 50%&lt;/div&gt;" style="align=left;strokeColor=none;fillColor=none;spacingLeft=4;fontSize=12;verticalAlign=top;resizable=0;rotatable=0;part=1;html=1;" parent="eL3KZXMqJx6TmEl7TWKh-20" vertex="1">
          <mxGeometry y="50" width="160" height="70" as="geometry" />
        </mxCell>
        <mxCell id="eL3KZXMqJx6TmEl7TWKh-22" value="" style="endArrow=classic;html=1;rounded=0;exitX=1;exitY=0.5;exitDx=0;exitDy=0;" parent="1" source="eL3KZXMqJx6TmEl7TWKh-9" edge="1">
          <mxGeometry width="50" height="50" relative="1" as="geometry">
            <mxPoint x="380" y="190" as="sourcePoint" />
            <mxPoint x="720" y="150" as="targetPoint" />
            <Array as="points">
              <mxPoint x="720" y="180" />
            </Array>
          </mxGeometry>
        </mxCell>
        <mxCell id="eL3KZXMqJx6TmEl7TWKh-23" value="" style="endArrow=classic;html=1;rounded=0;exitX=1;exitY=0.5;exitDx=0;exitDy=0;entryX=0.813;entryY=1.038;entryDx=0;entryDy=0;entryPerimeter=0;" parent="1" target="eL3KZXMqJx6TmEl7TWKh-21" edge="1">
          <mxGeometry width="50" height="50" relative="1" as="geometry">
            <mxPoint x="492" y="247" as="sourcePoint" />
            <mxPoint x="722" y="207" as="targetPoint" />
            <Array as="points">
              <mxPoint x="722" y="237" />
              <mxPoint x="780" y="237" />
            </Array>
          </mxGeometry>
        </mxCell>
        <mxCell id="eL3KZXMqJx6TmEl7TWKh-24" value="" style="endArrow=classic;html=1;rounded=0;exitX=1;exitY=0.5;exitDx=0;exitDy=0;entryX=1;entryY=1;entryDx=0;entryDy=0;" parent="1" target="eL3KZXMqJx6TmEl7TWKh-21" edge="1">
          <mxGeometry width="50" height="50" relative="1" as="geometry">
            <mxPoint x="490" y="324" as="sourcePoint" />
            <mxPoint x="768" y="220" as="targetPoint" />
            <Array as="points">
              <mxPoint x="720" y="314" />
              <mxPoint x="778" y="314" />
            </Array>
          </mxGeometry>
        </mxCell>
      </root>
    </mxGraphModel>
  </diagram>
</mxfile>
